<svg xmlns="http://www.w3.org/2000/svg" width="26" height="32" viewBox="0 0 26 32"><title>document</title><path fill="#3bb54b" d="M25.436 7.75L18.271.585a1.999 1.999 0 0 0-1.412-.586H2.004A2.005 2.005 0 0 0-.001 2.004v28.027c0 1.104.894 2.005 2.005 2.005h22.019a2.005 2.005 0 0 0 2.005-2.005V9.168a2.048 2.048 0 0 0-.593-1.419zm-3.417 20.277H4.003V4.003h10.506v5.505c0 1.104.894 2.005 2.005 2.005h5.505v16.514z"/><path fill="#332117" d="M19.518 23.018c0 .826-.668 1.502-1.502 1.502H8.005c-.826 0-1.502-.668-1.502-1.502s.668-1.502 1.502-1.502h10.011a1.512 1.512 0 0 1 1.502 1.502zM6.504 10.011c0-.826.668-1.502 1.502-1.502h2.501c.826 0 1.502.668 1.502 1.502s-.668 1.502-1.502 1.502H8.006a1.507 1.507 0 0 1-1.502-1.502zm13.014 6.503c0 .826-.668 1.502-1.502 1.502H8.005c-.826 0-1.502-.668-1.502-1.502s.668-1.502 1.502-1.502h10.011c.826 0 1.502.676 1.502 1.502z"/></svg>