<svg xmlns="http://www.w3.org/2000/svg" width="36" height="32" viewBox="0 0 36 32"><title>wallet</title><path fill="#3bb54b" d="M21.629 0L5.37 9.515h21.816z"/><path fill="#332117" d="M4.326 4.326a2.595 2.595 0 0 0-1.299 4.843l8.058-4.836H4.326zm21.869 0l3.072 5.189h2.741V4.326z"/><path fill="#332117" d="M0 8.216v20.329c0 2.035 1.427 3.462 3.462 3.462h32.879V25.09h-8.659c-.451 0-.864-.413-.864-.864v-6.053c0-.428.36-.826.781-.864h8.735v-6.053H3.245C1.45 11.241.001 9.897.001 8.214z"/><path fill="#3bb54b" d="M28.553 19.03h7.788v4.326h-7.788V19.03z"/></svg>