<svg xmlns="http://www.w3.org/2000/svg" width="40" height="32" viewBox="0 0 40 32"><title>forest</title><path fill="#332117" d="M14.149 6.166l1.998 3.462.188-.33.819-1.412-.27-.473h.541l.075-.128-1.096-1.9h.473l-1.374-2.381-1.374 2.381h.473zM7.585 4.994l2.486 4.303 1.99-3.447-1.089-1.877h.751L9.575.256 7.427 3.973h.744z"/><path fill="#3bb54b" d="M7.578 19.203H5.67l3.244-5.625H7.592l1.389-2.411-.774-1.337h1.096L6.149 4.363 2.987 9.83h1.096l-2.689 4.656h1.585l-2.981 5.159h5.107v3.695h.083zm9.56-9.44h1.442l-1.179 2.035 1.029 1.78h-1.322l.503.879h2.906v3.049l4.153-7.202-.06-.113h-1.712l1.577-2.726-1.127-1.953h.999L21.471.533l-2.884 4.979h1.006z"/><path fill="#3bb54b" d="M16.845 18.279h1.908l-3.252-5.625h1.322l-3.808-6.609L9.2 12.654h1.322l-3.244 5.625h1.908l-3.597 6.226h6.166v4.461h2.523v-4.461h4.851l.653-1.134zm18.294-1.186h2.659l-4.521-7.825h1.84l-5.31-9.2-5.31 9.2h1.847l-4.521 7.825h2.651l-5.002 8.674h8.576v6.211h3.515v-6.211h8.584z"/><path fill="#332117" d="M28.05 25.767h3.515v6.241H28.05v-6.241zm-16.297-1.239h2.516v4.438h-2.516v-4.438zm-5.858-2.419l-.984 1.9v-4.371h2.411z"/></svg>