<!-- Generated by IcoMoon.io -->
<svg version="1.1" xmlns="http://www.w3.org/2000/svg" width="40" height="32" viewBox="0 0 40 32">
<title>forest</title>
<path fill="#332117" d="M14.149 6.166l1.998 3.462 0.188-0.33 0.819-1.412-0.27-0.473h0.541l0.075-0.128-1.096-1.9h0.473l-1.374-2.381-1.374 2.381h0.473z"></path>
<path fill="#332117" d="M7.585 4.994l2.486 4.303 1.99-3.447-1.089-1.877h0.751l-2.148-3.717-2.148 3.717h0.744z"></path>
<path fill="#3bb54b" d="M7.578 19.203h-1.908l3.244-5.625h-1.322l1.389-2.411-0.774-1.337h1.096l-3.154-5.467-3.162 5.467h1.096l-2.689 4.656h1.585l-2.981 5.159h5.107v3.695h0.083z"></path>
<path fill="#3bb54b" d="M17.138 9.763h1.442l-1.179 2.035 1.029 1.78h-1.322l0.503 0.879h2.906v3.049l4.153-7.202-0.060-0.113h-1.712l1.577-2.726-1.127-1.953h0.999l-2.876-4.979-2.884 4.979h1.006z"></path>
<path fill="#3bb54b" d="M16.845 18.279h1.908l-3.252-5.625h1.322l-3.808-6.609-3.815 6.609h1.322l-3.244 5.625h1.908l-3.597 6.226h6.166v4.461h2.523v-4.461h4.851l0.653-1.134z"></path>
<path fill="#3bb54b" d="M35.139 17.093h2.659l-4.521-7.825h1.84l-5.31-9.2-5.31 9.2h1.847l-4.521 7.825h2.651l-5.002 8.674h8.576v6.211h3.515v-6.211h8.584z"></path>
<path fill="#332117" d="M28.050 25.767h3.515v6.241h-3.515v-6.241z"></path>
<path fill="#332117" d="M11.753 24.528h2.516v4.438h-2.516v-4.438z"></path>
<path fill="#332117" d="M5.895 22.109l-0.984 1.9v-4.371h2.411z"></path>
</svg>
