<!-- Generated by IcoMoon.io -->
<svg version="1.1" xmlns="http://www.w3.org/2000/svg" width="31" height="32" viewBox="0 0 31 32">
<title>lamp</title>
<path fill="#3bb54b" d="M15.591 0.023c-5.993 0-10.394 4.694-10.394 10.168 0 4.686 5.602 9.17 5.602 13.856h9.56c0-4.686 5.625-9.17 5.625-13.856 0-5.475-4.401-10.168-10.394-10.168z"></path>
<path fill="#332117" d="M12.084 24.468c-1.104 0-1.495 0.834-1.495 1.682 0 0.458 0.128 0.924 0.428 1.239-0.3 0.323-0.428 0.789-0.428 1.269 0 0.819 0.391 1.66 1.495 1.66h1.284c0.263 0.668 0.518 1.194 0.781 1.727h2.861c0.263-0.526 0.518-1.051 0.781-1.727h1.224c1.187 0 1.562-0.834 1.562-1.622 0-0.496-0.135-0.976-0.443-1.307 0.315-0.315 0.443-0.759 0.443-1.202 0-0.886-0.383-1.727-1.532-1.727l-6.962 0.008z"></path>
<path fill="#3bb54b" d="M2.906 0c-0.098 0-0.195 0.038-0.27 0.113-0.15 0.15-0.15 0.391 0 0.541l2.118 2.118c0.15 0.15 0.391 0.15 0.541 0s0.15-0.391 0-0.533l-2.125-2.125c-0.075-0.075-0.165-0.113-0.263-0.113z"></path>
<path fill="#3bb54b" d="M28.335 0c-0.098 0-0.188 0.038-0.263 0.113l-2.125 2.125c-0.15 0.15-0.15 0.391 0 0.533s0.391 0.15 0.541 0l2.118-2.118c0.15-0.15 0.15-0.391 0-0.541-0.075-0.075-0.173-0.113-0.27-0.113z"></path>
<path fill="#3bb54b" d="M0.391 9.080c-0.21 0-0.391 0.173-0.391 0.391s0.173 0.383 0.391 0.383h3.004c0.21 0 0.383-0.173 0.383-0.383s-0.173-0.391-0.383-0.391h-3.004z"></path>
<path fill="#3bb54b" d="M27.847 9.080c-0.21 0-0.383 0.173-0.383 0.391s0.173 0.383 0.383 0.383h3.004c0.21 0 0.391-0.173 0.391-0.383s-0.173-0.391-0.391-0.391h-3.004z"></path>
<path fill="#3bb54b" d="M5.024 16.034c-0.098 0-0.195 0.045-0.27 0.12l-2.118 2.118c-0.15 0.15-0.15 0.391 0 0.541s0.391 0.15 0.533 0l2.125-2.125c0.15-0.15 0.15-0.391 0-0.533-0.068-0.075-0.173-0.12-0.27-0.12z"></path>
<path fill="#3bb54b" d="M26.21 16.034c-0.098 0-0.195 0.045-0.27 0.12-0.15 0.15-0.15 0.391 0 0.533l2.125 2.125c0.15 0.15 0.391 0.15 0.533 0s0.15-0.391 0-0.541l-2.118-2.118c-0.075-0.075-0.173-0.12-0.27-0.12z"></path>
</svg>
