<svg xmlns="http://www.w3.org/2000/svg" width="31" height="32" viewBox="0 0 31 32"><title>lamp</title><path fill="#3bb54b" d="M15.591.023C9.598.023 5.197 4.717 5.197 10.191c0 4.686 5.602 9.17 5.602 13.856h9.56c0-4.686 5.625-9.17 5.625-13.856C25.984 4.716 21.583.023 15.59.023z"/><path fill="#332117" d="M12.084 24.468c-1.104 0-1.495.834-1.495 1.682 0 .458.128.924.428 1.239-.3.323-.428.789-.428 1.269 0 .819.391 1.66 1.495 1.66h1.284c.263.668.518 1.194.781 1.727h2.861a19.33 19.33 0 0 0 .781-1.727h1.224c1.187 0 1.562-.834 1.562-1.622 0-.496-.135-.976-.443-1.307.315-.315.443-.759.443-1.202 0-.886-.383-1.727-1.532-1.727l-6.962.008z"/><path fill="#3bb54b" d="M2.906 0a.38.38 0 0 0-.27.113.381.381 0 0 0 0 .541l2.118 2.118c.15.15.391.15.541 0s.15-.391 0-.533L3.17.114a.365.365 0 0 0-.263-.113zm25.429 0a.365.365 0 0 0-.263.113l-2.125 2.125c-.15.15-.15.391 0 .533s.391.15.541 0L28.606.653a.381.381 0 0 0 0-.541.382.382 0 0 0-.27-.113zM.391 9.08c-.21 0-.391.173-.391.391s.173.383.391.383h3.004c.21 0 .383-.173.383-.383s-.173-.391-.383-.391H.391zm27.456 0c-.21 0-.383.173-.383.391s.173.383.383.383h3.004c.21 0 .391-.173.391-.383s-.173-.391-.391-.391h-3.004zM5.024 16.034a.388.388 0 0 0-.27.12l-2.118 2.118c-.15.15-.15.391 0 .541s.391.15.533 0l2.125-2.125a.372.372 0 0 0 0-.533.377.377 0 0 0-.27-.12zm21.186 0a.388.388 0 0 0-.27.12.372.372 0 0 0 0 .533l2.125 2.125c.15.15.391.15.533 0s.15-.391 0-.541l-2.118-2.118a.39.39 0 0 0-.27-.12z"/></svg>