<svg xmlns="http://www.w3.org/2000/svg" width="27" height="32" viewBox="0 0 27 32"><title>safety</title><path fill="#332117" d="M26.638 1.72C22.237 3.455 16.95 2.163 13.383 0 9.891 2.163 4.604 3.447.188 1.72c-1.765 25.962 9.703 27.254 13.165 30.288C16.5 28.974 28.41 27.682 26.638 1.72zm-6.842 21.215c-1.442 2.268-4.431 3.875-5.843 4.506a.898.898 0 0 1-1.164.03c-.856-.751-3.65-1.667-5.903-4.551-2.253-2.869-3.92-7.728-3.327-16.612.03-.548.691-.969 1.194-.766 2.636 1.029 6.008.248 8.171-1.089.353-.203.548-.12.901 0 2.223 1.337 5.595 2.118 8.216 1.089.503-.203 1.134.218 1.179.766.608 8.884-1.142 13.758-3.425 16.627z"/><path fill="#3bb54b" d="M12.534 6.564c-2.133.984-4.739 1.472-7.247.871-.135 3.094.015 5.625.353 7.698h6.894V6.564zm1.727 0v8.569h6.879c.353-2.073.503-4.596.368-7.698-2.493.586-5.114.105-7.247-.871zM5.985 16.86c.571 2.253 1.382 3.845 2.268 4.994 1.412 1.78 2.959 2.576 4.273 3.372V16.86H5.985zm8.276 0v8.291c1.562-.916 3.207-2.103 4.168-3.297.916-1.149 1.765-2.741 2.343-4.994h-6.511z"/></svg>