<!-- Generated by IcoMoon.io -->
<svg version="1.1" xmlns="http://www.w3.org/2000/svg" width="27" height="32" viewBox="0 0 27 32">
<title>safety</title>
<path fill="#332117" d="M26.638 1.72c-4.401 1.735-9.688 0.443-13.255-1.72-3.492 2.163-8.779 3.447-13.195 1.72-1.765 25.962 9.703 27.254 13.165 30.288 3.147-3.034 15.057-4.326 13.285-30.288zM19.796 22.935c-1.442 2.268-4.431 3.875-5.843 4.506-0.308 0.293-0.841 0.308-1.164 0.030-0.856-0.751-3.65-1.667-5.903-4.551-2.253-2.869-3.92-7.728-3.327-16.612 0.030-0.548 0.691-0.969 1.194-0.766 2.636 1.029 6.008 0.248 8.171-1.089 0.353-0.203 0.548-0.12 0.901 0 2.223 1.337 5.595 2.118 8.216 1.089 0.503-0.203 1.134 0.218 1.179 0.766 0.608 8.884-1.142 13.758-3.425 16.627z"></path>
<path fill="#3bb54b" d="M12.534 6.564c-2.133 0.984-4.739 1.472-7.247 0.871-0.135 3.094 0.015 5.625 0.353 7.698h6.894v-8.569z"></path>
<path fill="#3bb54b" d="M14.261 6.564v8.569h6.879c0.353-2.073 0.503-4.596 0.368-7.698-2.493 0.586-5.114 0.105-7.247-0.871z"></path>
<path fill="#3bb54b" d="M5.985 16.86c0.571 2.253 1.382 3.845 2.268 4.994 1.412 1.78 2.959 2.576 4.273 3.372v-8.366h-6.541z"></path>
<path fill="#3bb54b" d="M14.261 16.86v8.291c1.562-0.916 3.207-2.103 4.168-3.297 0.916-1.149 1.765-2.741 2.343-4.994h-6.511z"></path>
</svg>
