<svg xmlns="http://www.w3.org/2000/svg" width="31" height="32" viewBox="0 0 31 32"><title>sandbox</title><path fill="#332117" d="M0 27.659h31.234v4.348H0v-4.348zm16.214-24.52l-1.187.398v18.978l1.187-.789z"/><path fill="#3bb54b" d="M30.445 25.286H28.86s-5.535-2.771-8.306-2.771-3.95 1.585-6.323 1.585-3.56-.789-5.137-.789c-1.585 0-2.373.789-4.348.789s-2.771 1.187-2.771 1.187H.788a.789.789 0 1 0 0 1.578h29.657a.789.789 0 1 0 0-1.578zm-.518-14.87L16.086.135a.789.789 0 0 0-.946 0L1.307 10.416a.792.792 0 1 0 .473 1.427h27.674a.792.792 0 0 0 .751-.541.776.776 0 0 0-.278-.886z"/></svg>