<!-- Generated by IcoMoon.io -->
<svg version="1.1" xmlns="http://www.w3.org/2000/svg" width="31" height="32" viewBox="0 0 31 32">
<title>sandbox</title>
<path fill="#332117" d="M0 27.659h31.234v4.348h-31.234v-4.348z"></path>
<path fill="#332117" d="M16.214 3.139l-1.187 0.398v18.978l1.187-0.789z"></path>
<path fill="#3bb54b" d="M30.445 25.286h-1.585c0 0-5.535-2.771-8.306-2.771s-3.95 1.585-6.323 1.585-3.56-0.789-5.137-0.789c-1.585 0-2.373 0.789-4.348 0.789s-2.771 1.187-2.771 1.187h-1.187c-0.436 0-0.789 0.353-0.789 0.789s0.353 0.789 0.789 0.789h29.657c0.436 0 0.789-0.353 0.789-0.789s-0.353-0.789-0.789-0.789z"></path>
<path fill="#3bb54b" d="M29.927 10.416l-13.841-10.281c-0.278-0.21-0.661-0.21-0.946 0l-13.833 10.281c-0.27 0.203-0.383 0.556-0.278 0.886 0.105 0.323 0.413 0.541 0.751 0.541h27.674c0.338 0 0.646-0.218 0.751-0.541 0.113-0.33 0-0.683-0.278-0.886z"></path>
</svg>
