<!-- Generated by IcoMoon.io -->
<svg version="1.1" xmlns="http://www.w3.org/2000/svg" width="36" height="32" viewBox="0 0 36 32">
<title>wallet</title>
<path fill="#3bb54b" d="M21.629 0l-16.259 9.515h21.816z"></path>
<path fill="#332117" d="M4.326 4.326c-1.434 0-2.598 1.157-2.598 2.598 0 0.961 0.518 1.795 1.299 2.245l8.058-4.836h-6.759z"></path>
<path fill="#332117" d="M26.195 4.326l3.072 5.189h2.741v-5.189z"></path>
<path fill="#332117" d="M0 8.216v20.329c0 2.035 1.427 3.462 3.462 3.462h32.879v-6.917h-8.659c-0.451 0-0.864-0.413-0.864-0.864v-6.053c0-0.428 0.36-0.826 0.781-0.864 0.030 0 0.053 0 0.083 0h8.652v-6.053h-33.089c-1.795-0.015-3.244-1.359-3.244-3.042z"></path>
<path fill="#3bb54b" d="M28.553 19.030h7.788v4.326h-7.788v-4.326z"></path>
</svg>
